<svg xmlns="http://www.w3.org/2000/svg" viewBox="0 0 1536 1024" width="1536" height="1024" role="img" aria-labelledby="title desc" color="#050505">
  <title id="title">Sumi-e koi silhouette</title>
  <desc id="desc">A vector-traced black ink koi mark with brush-like texture, designed to wrap around empty central space.</desc>
  <path fill="currentColor" fill-rule="evenodd" d="
    M544 64 L532 64 L509 69 L540 68 L546 70 L558 81 L560 88 L558 98 L525 108 L507 120 L484 131 L476 130 L463 135 L451 145 L446 153 L423 165 L396 185 L377 203 L377 205 L364 219 L366 220 L371 216 L373 219 L393 205 L395 206 L387 214 L405 203 L407 204 L394 217 L400 214 L402 215 L373 246 L349 277 L377 249 L395 236 L396 238 L391 242 L390 246 L400 238 L403 233 L399 233 L402 230 L407 231 L410 229 L410 232 L399 242 L399 244 L377 268 L382 265 L384 261 L395 259 L399 254 L403 253 L404 255 L382 278 L380 276 L381 278 L374 284 L367 294 L365 292 L354 303 L357 306 L348 316 L345 315 L340 320 L340 323 L343 320 L345 321 L339 328 L336 326 L327 334 L326 333 L334 324 L335 320 L340 316 L334 314 L331 317 L329 323 L333 319 L333 323 L328 328 L327 326 L323 328 L299 363 L298 361 L282 383 L282 386 L277 390 L256 430 L250 448 L245 469 L239 512 L241 515 L239 524 L241 568 L250 616 L258 637 L248 586 L247 534 L249 529 L250 545 L253 552 L254 540 L252 537 L256 531 L254 519 L256 517 L259 499 L261 496 L263 497 L261 500 L262 505 L259 529 L259 547 L261 557 L260 567 L266 607 L276 648 L283 666 L274 629 L275 623 L272 617 L273 613 L270 597 L271 590 L275 600 L274 603 L276 607 L274 611 L278 619 L277 622 L280 637 L284 644 L283 647 L286 650 L285 655 L294 685 L307 713 L306 716 L302 712 L302 709 L285 676 L288 687 L304 717 L308 716 L313 726 L312 727 L352 782 L349 784 L339 774 L310 735 L340 782 L338 783 L330 775 L344 793 L356 824 L355 827 L367 852 L389 883 L422 914 L432 920 L410 899 L411 895 L441 919 L477 938 L479 937 L458 926 L441 913 L443 912 L459 920 L447 910 L449 909 L463 917 L439 899 L418 876 L417 873 L419 872 L442 891 L448 893 L469 906 L470 905 L461 899 L454 892 L458 892 L437 872 L439 871 L452 881 L451 878 L433 860 L435 859 L434 857 L429 857 L422 848 L383 818 L385 817 L383 818 L379 812 L376 811 L350 784 L352 782 L364 792 L363 794 L365 796 L366 795 L383 810 L368 794 L370 790 L366 788 L369 791 L368 793 L362 786 L365 785 L364 780 L358 772 L359 770 L398 810 L407 816 L419 828 L458 855 L476 865 L481 866 L490 873 L502 877 L516 885 L521 885 L532 892 L537 892 L543 896 L581 909 L610 915 L578 906 L565 899 L560 900 L546 893 L549 892 L574 901 L583 902 L594 907 L599 906 L619 912 L640 915 L638 913 L607 904 L612 903 L639 909 L612 902 L603 898 L592 899 L591 898 L595 895 L565 884 L555 878 L553 879 L546 873 L528 865 L528 863 L534 864 L550 872 L553 872 L551 871 L554 870 L569 877 L607 888 L597 882 L594 883 L572 873 L578 873 L622 887 L629 887 L605 877 L602 878 L591 874 L590 871 L588 873 L575 867 L578 866 L568 862 L534 844 L486 808 L488 812 L486 813 L481 808 L482 806 L480 807 L464 791 L466 789 L462 789 L457 784 L451 774 L452 773 L458 780 L460 780 L450 766 L445 762 L443 757 L434 749 L432 752 L431 746 L426 740 L423 731 L425 731 L431 742 L432 737 L424 727 L424 720 L417 711 L417 704 L414 701 L407 679 L408 675 L403 638 L405 638 L408 647 L420 663 L434 674 L435 673 L427 663 L431 663 L429 660 L430 658 L434 663 L433 665 L435 664 L442 672 L442 667 L448 674 L450 672 L462 688 L463 687 L457 674 L458 668 L456 668 L456 672 L452 666 L454 664 L451 664 L452 660 L449 652 L442 643 L443 641 L456 656 L463 668 L462 660 L459 656 L460 655 L465 660 L476 677 L475 679 L478 681 L479 686 L481 686 L479 678 L481 678 L479 678 L473 666 L474 664 L476 667 L476 664 L465 643 L462 641 L463 638 L450 619 L426 594 L417 577 L413 552 L418 541 L416 538 L424 522 L421 522 L425 512 L425 517 L429 511 L429 508 L427 511 L426 510 L428 506 L420 520 L408 552 L406 549 L408 554 L407 555 L405 553 L402 559 L402 564 L404 560 L406 560 L402 573 L402 566 L399 571 L399 566 L396 565 L400 561 L403 550 L400 551 L394 574 L398 574 L397 581 L400 577 L401 579 L400 583 L397 583 L394 593 L393 585 L395 583 L395 578 L392 578 L389 597 L391 598 L393 593 L394 601 L392 602 L390 600 L388 602 L389 613 L391 611 L391 605 L393 605 L392 630 L390 629 L391 618 L390 616 L387 618 L388 642 L390 647 L390 656 L394 664 L393 670 L405 707 L416 730 L415 734 L412 727 L395 704 L389 690 L385 689 L387 685 L383 685 L382 678 L379 675 L379 671 L376 666 L380 685 L387 702 L386 703 L381 699 L376 689 L378 688 L377 684 L372 679 L372 674 L369 672 L369 667 L361 650 L358 640 L357 626 L355 624 L356 619 L358 624 L365 627 L365 620 L363 618 L364 614 L362 612 L363 606 L360 601 L361 583 L360 581 L357 581 L356 584 L355 583 L355 573 L361 572 L360 558 L363 550 L362 548 L358 549 L359 541 L362 540 L360 540 L359 537 L362 529 L364 531 L367 527 L378 490 L399 444 L408 430 L408 436 L406 437 L406 442 L403 443 L405 445 L400 453 L396 465 L394 462 L392 467 L395 469 L387 491 L384 493 L384 500 L379 514 L382 510 L386 494 L392 484 L392 478 L395 477 L403 460 L401 461 L400 459 L403 456 L404 458 L410 446 L408 444 L415 434 L417 427 L421 425 L422 419 L434 403 L438 402 L439 397 L448 386 L449 387 L448 385 L451 382 L452 388 L450 390 L449 389 L446 396 L443 397 L440 406 L445 402 L448 396 L455 389 L457 383 L471 367 L475 358 L479 355 L481 351 L480 348 L494 327 L503 318 L504 319 L495 336 L513 317 L522 304 L524 304 L519 322 L508 345 L510 347 L500 362 L501 365 L497 367 L497 370 L491 377 L512 357 L513 359 L506 369 L510 367 L530 341 L531 343 L523 355 L523 358 L538 339 L569 283 L574 264 L581 262 L592 249 L595 240 L595 223 L593 221 L595 216 L601 210 L614 184 L618 169 L619 147 L629 153 L638 165 L641 175 L639 203 L644 220 L642 202 L646 177 L640 157 L628 144 L617 139 L611 128 L595 113 L579 103 L568 100 L566 98 L567 89 L564 79 L558 71 Z
    M1241 183 L1237 182 L1265 211 L1264 213 L1231 183 L1230 184 L1246 197 L1254 207 L1252 208 L1241 196 L1231 188 L1229 189 L1242 201 L1246 210 L1253 217 L1253 222 L1259 228 L1260 226 L1267 235 L1264 237 L1265 240 L1268 241 L1269 239 L1278 253 L1277 254 L1270 246 L1272 251 L1278 258 L1280 256 L1287 267 L1286 269 L1282 264 L1280 264 L1280 269 L1290 286 L1289 287 L1284 284 L1282 278 L1269 259 L1283 288 L1283 294 L1289 304 L1292 314 L1291 318 L1288 315 L1288 319 L1293 333 L1298 359 L1302 365 L1301 371 L1306 389 L1305 392 L1307 394 L1307 401 L1305 404 L1301 392 L1303 388 L1301 387 L1292 351 L1290 350 L1283 333 L1281 332 L1278 334 L1282 334 L1281 341 L1282 337 L1289 354 L1289 357 L1285 359 L1281 351 L1282 346 L1284 349 L1282 343 L1280 345 L1273 328 L1267 318 L1276 345 L1275 348 L1274 346 L1273 347 L1275 348 L1276 356 L1278 353 L1280 358 L1278 361 L1280 359 L1281 360 L1279 366 L1283 368 L1283 372 L1281 372 L1282 379 L1286 384 L1285 392 L1282 388 L1282 383 L1275 363 L1276 365 L1273 371 L1279 398 L1281 417 L1280 421 L1282 428 L1284 464 L1282 478 L1280 475 L1278 443 L1269 406 L1265 399 L1261 397 L1259 388 L1257 387 L1263 406 L1265 403 L1272 432 L1271 438 L1273 441 L1272 442 L1270 440 L1267 444 L1266 438 L1268 436 L1265 435 L1261 415 L1262 414 L1263 416 L1265 412 L1261 415 L1256 397 L1254 395 L1255 393 L1246 373 L1244 374 L1253 397 L1257 412 L1256 416 L1258 416 L1256 421 L1259 425 L1259 433 L1262 437 L1262 445 L1264 449 L1263 468 L1261 449 L1255 433 L1255 428 L1255 438 L1252 439 L1247 425 L1252 458 L1251 470 L1253 504 L1251 510 L1249 495 L1239 467 L1236 465 L1234 467 L1230 458 L1222 447 L1226 453 L1226 456 L1224 456 L1211 435 L1210 436 L1220 457 L1217 459 L1226 485 L1227 493 L1229 495 L1229 510 L1221 494 L1218 491 L1216 493 L1210 480 L1191 461 L1189 461 L1199 473 L1198 475 L1184 460 L1177 457 L1176 459 L1166 452 L1177 463 L1173 464 L1184 474 L1183 477 L1186 481 L1182 481 L1194 499 L1193 502 L1188 498 L1167 470 L1145 454 L1129 446 L1121 444 L1125 447 L1122 448 L1107 441 L1087 439 L1060 442 L1088 448 L1102 455 L1120 468 L1121 472 L1138 487 L1138 490 L1150 508 L1170 546 L1180 587 L1181 627 L1178 646 L1175 649 L1175 658 L1171 662 L1166 680 L1171 674 L1173 674 L1176 667 L1177 670 L1168 690 L1165 690 L1158 700 L1157 695 L1148 710 L1148 712 L1154 705 L1155 707 L1153 710 L1157 706 L1157 704 L1155 706 L1154 702 L1157 699 L1159 702 L1164 694 L1165 695 L1151 724 L1164 710 L1168 701 L1169 704 L1171 704 L1167 709 L1168 711 L1149 741 L1144 746 L1143 744 L1147 740 L1146 738 L1141 738 L1143 739 L1138 742 L1127 760 L1111 777 L1110 774 L1133 747 L1131 744 L1140 735 L1143 729 L1140 729 L1136 734 L1132 733 L1125 745 L1133 738 L1132 742 L1125 749 L1123 748 L1117 752 L1113 758 L1114 759 L1097 775 L1091 784 L1087 785 L1058 812 L1019 841 L991 859 L1015 847 L1036 832 L1036 836 L1018 848 L993 861 L985 868 L981 868 L973 873 L971 872 L971 875 L947 885 L944 888 L974 876 L1025 849 L1026 850 L1004 865 L935 895 L932 898 L982 878 L983 876 L987 877 L966 888 L904 912 L898 911 L904 908 L891 911 L888 913 L890 913 L890 915 L868 921 L869 922 L877 920 L880 921 L886 917 L887 919 L915 912 L916 913 L909 917 L914 920 L923 917 L923 915 L913 918 L910 917 L930 911 L939 905 L949 902 L950 903 L947 905 L949 908 L943 911 L950 909 L948 907 L957 904 L957 906 L953 907 L955 908 L981 899 L998 891 L1007 889 L1048 867 L1051 868 L1020 887 L1035 881 L1035 883 L1016 892 L1015 891 L1015 893 L1011 892 L1013 893 L1010 896 L1004 897 L1001 900 L1013 896 L1014 897 L1012 899 L962 922 L956 923 L986 916 L1001 910 L1004 911 L1017 906 L1026 900 L1036 899 L1063 884 L1082 876 L1094 867 L1096 868 L1110 858 L1113 858 L1150 831 L1175 809 L1180 799 L1202 776 L1202 774 L1166 807 L1165 805 L1172 798 L1170 796 L1175 789 L1160 801 L1157 801 L1177 782 L1185 771 L1187 772 L1185 771 L1199 757 L1198 754 L1200 752 L1203 753 L1217 737 L1227 718 L1225 718 L1209 735 L1209 737 L1204 740 L1205 742 L1203 745 L1202 742 L1196 749 L1193 748 L1217 724 L1219 718 L1232 704 L1233 701 L1231 701 L1226 707 L1224 706 L1232 694 L1234 696 L1235 694 L1232 694 L1256 669 L1257 672 L1255 674 L1260 668 L1262 669 L1262 666 L1279 649 L1280 650 L1250 692 L1242 700 L1240 706 L1242 707 L1256 691 L1254 689 L1261 684 L1261 679 L1265 678 L1287 655 L1273 667 L1271 666 L1288 647 L1296 641 L1295 639 L1300 633 L1302 634 L1301 632 L1312 620 L1311 618 L1314 615 L1316 616 L1315 614 L1318 613 L1329 601 L1362 555 L1361 553 L1370 540 L1372 542 L1390 492 L1395 469 L1394 467 L1392 474 L1391 470 L1389 475 L1391 473 L1392 477 L1383 506 L1376 519 L1376 511 L1379 508 L1381 498 L1387 484 L1385 484 L1379 498 L1379 490 L1386 471 L1384 472 L1379 491 L1376 495 L1376 497 L1379 498 L1378 506 L1374 507 L1375 513 L1371 521 L1372 522 L1375 518 L1375 523 L1360 549 L1357 552 L1355 550 L1347 561 L1346 560 L1351 548 L1359 541 L1358 538 L1371 525 L1366 530 L1367 522 L1362 532 L1359 535 L1358 534 L1364 522 L1364 518 L1370 508 L1369 506 L1377 487 L1383 456 L1385 453 L1384 450 L1387 431 L1384 437 L1381 457 L1372 482 L1372 470 L1375 469 L1375 467 L1371 471 L1366 490 L1363 490 L1365 492 L1361 505 L1363 506 L1356 514 L1355 512 L1357 511 L1358 503 L1356 504 L1341 532 L1340 537 L1336 541 L1323 564 L1314 575 L1288 616 L1247 671 L1247 665 L1262 643 L1262 639 L1260 638 L1261 635 L1272 624 L1293 593 L1295 588 L1294 586 L1285 601 L1278 608 L1276 607 L1292 581 L1298 566 L1305 557 L1313 537 L1319 528 L1318 524 L1324 517 L1324 511 L1328 510 L1327 516 L1323 522 L1320 534 L1311 553 L1317 543 L1318 546 L1297 584 L1317 553 L1341 499 L1353 446 L1353 405 L1355 400 L1353 392 L1354 382 L1350 371 L1351 364 L1349 361 L1348 350 L1344 338 L1342 336 L1343 338 L1340 338 L1337 324 L1326 297 L1327 294 L1317 273 L1307 256 L1308 264 L1307 265 L1291 241 L1291 238 L1284 233 L1285 230 L1280 222 Z
    M515 366 L514 370 L493 398 L458 453 L470 439 L471 449 L469 451 L468 471 L472 493 L473 470 L475 470 L475 488 L478 489 L477 477 L481 461 L484 478 L483 484 L486 486 L485 488 L484 487 L483 492 L486 498 L489 513 L490 505 L494 506 L491 502 L493 496 L493 480 L495 478 L496 489 L499 494 L499 498 L500 496 L501 497 L501 513 L503 519 L505 518 L505 509 L507 508 L507 498 L505 497 L507 496 L508 482 L510 482 L512 509 L514 512 L513 526 L516 527 L518 521 L518 535 L520 534 L523 525 L525 542 L528 537 L530 537 L528 554 L526 557 L526 563 L523 567 L524 572 L520 580 L520 586 L525 579 L525 574 L529 569 L529 560 L533 555 L532 550 L535 547 L538 528 L537 520 L539 519 L538 516 L540 515 L541 509 L541 534 L535 562 L532 568 L536 567 L537 569 L534 573 L532 571 L529 579 L536 572 L552 533 L554 538 L544 572 L558 532 L561 491 L557 453 L551 430 L540 407 L537 396 L530 385 L527 374 L520 365 Z
    M342 238 L330 241 L320 239 L293 239 L270 242 L224 257 L206 267 L186 282 L186 286 L158 313 L154 322 L149 327 L148 332 L154 323 L162 315 L164 316 L175 303 L178 303 L183 296 L186 297 L189 294 L192 295 L192 292 L195 291 L196 293 L198 291 L196 290 L205 285 L206 286 L204 288 L209 288 L187 303 L179 310 L179 312 L174 313 L164 323 L166 325 L160 330 L154 340 L180 315 L184 315 L176 322 L191 311 L202 305 L204 306 L197 313 L195 312 L196 313 L184 325 L185 326 L216 307 L219 308 L219 306 L235 298 L238 299 L206 318 L200 324 L201 325 L211 320 L216 321 L218 319 L220 322 L206 335 L212 330 L213 331 L221 327 L223 328 L222 327 L224 326 L226 329 L221 333 L222 335 L256 318 L257 319 L244 327 L235 336 L240 335 L240 337 L226 345 L234 344 L245 339 L247 341 L256 339 L283 321 L283 325 L286 322 L294 306 Z
    M1387 523 L1385 524 L1374 547 L1370 550 L1371 545 L1369 546 L1367 554 L1361 560 L1359 566 L1347 584 L1351 580 L1354 582 L1358 571 L1363 569 L1370 558 L1370 555 L1374 551 Z
    M1264 218 L1286 241 L1288 240 L1290 242 L1288 244 L1294 251 L1297 258 L1296 260 L1281 239 L1281 244 L1276 239 L1275 233 L1264 221 Z
    M1272 442 L1274 446 L1274 455 L1272 456 L1273 463 L1270 478 L1268 475 L1268 449 L1271 448 L1270 444 Z
    M278 690 L287 713 L297 729 L297 732 L309 749 L292 717 L290 710 L285 705 L285 701 L281 698 Z
    M413 403 L413 408 L409 411 L404 421 L396 431 L395 427 Z
    M1354 516 L1356 519 L1342 543 L1341 540 L1347 526 Z
    M1183 637 L1184 644 L1180 660 L1176 663 L1174 659 L1176 658 Z
    M536 501 L537 521 L535 526 L534 520 L532 519 L534 502 Z
    M323 332 L326 335 L324 337 L326 341 L321 347 L319 345 L316 346 L315 345 L321 339 Z
    M1169 799 L1155 812 L1154 815 L1153 813 L1151 815 L1149 814 L1167 798 Z
    M1259 639 L1259 644 L1249 655 L1248 653 L1251 650 L1253 643 Z
    M1339 543 L1340 546 L1329 562 L1328 559 L1335 549 L1334 547 Z
    M1284 246 L1295 259 L1297 264 L1296 266 L1283 248 Z
    M1248 654 L1249 657 L1237 673 L1236 671 Z
    M1275 480 L1276 488 L1272 505 L1271 498 L1273 482 Z
    M1254 439 L1256 440 L1257 445 L1256 447 L1255 446 L1255 455 L1253 454 L1253 448 L1251 445 L1251 442 Z
    M516 504 L519 505 L518 517 L515 516 L515 510 L513 508 Z
    M556 509 L556 523 L553 534 L553 518 Z
    M1290 364 L1294 374 L1294 379 L1292 381 L1289 373 L1291 373 L1290 370 L1288 370 L1288 366 Z
    M413 523 L408 530 L402 547 L404 547 L404 544 L408 539 L408 533 Z
    M283 686 L287 698 L296 712 L292 705 L293 703 L287 694 L285 686 Z
    M1276 607 L1277 610 L1269 622 L1268 620 Z
    M393 636 L396 644 L395 652 L394 646 L391 644 Z
    M317 354 L318 358 L311 366 L310 364 Z
    M271 661 L271 664 L273 661 L281 684 L283 684 L275 661 Z
    M1143 745 L1144 747 L1136 757 L1135 754 Z
    M358 609 L361 614 L360 620 L356 617 Z
    M515 493 L518 496 L518 504 L514 498 Z
    M1192 753 L1193 756 L1184 765 L1183 763 Z
    M424 740 L426 742 L426 746 L423 748 L420 742 Z
    M1356 551 L1357 553 L1350 563 L1349 561 L1353 553 Z
    M488 316 L489 319 L481 328 L480 325 Z
    M481 688 L480 691 L486 702 L484 691 Z
    M1174 808 L1164 817 L1162 816 L1172 807 Z
    M252 512 L253 520 L250 522 L249 516 Z
    M313 351 L313 355 L308 360 L308 355 Z
    M388 442 L389 444 L383 454 L382 450 Z
    M1328 561 L1328 565 L1322 571 L1321 569 Z
    M424 649 L428 649 L431 653 L428 656 Z
    M1298 267 L1302 271 L1302 277 L1297 270 Z
    M1149 727 L1144 733 L1145 736 L1147 736 Z
    M1094 787 L1095 788 L1087 795 L1086 793 Z
    M195 279 L187 286 L185 285 L193 278 Z
    M1275 226 L1277 225 L1283 232 L1281 233 Z
    M1293 381 L1295 382 L1296 387 L1295 392 L1292 383 Z
    M395 430 L396 432 L391 439 L390 434 Z
    M1045 878 L1038 882 L1035 881 L1042 876 Z
    M1321 291 L1325 298 L1324 302 L1320 294 Z
    M1186 619 L1187 622 L1185 630 L1184 620 Z
    M1296 305 L1300 312 L1299 315 L1295 308 Z
    M941 889 L939 888 L928 895 Z
    M1236 713 L1230 718 L1227 724 Z
    M1147 818 L1142 823 L1138 823 L1145 817 Z
    M1308 264 L1313 270 L1311 273 L1307 266 Z
    M999 901 L984 908 L998 903 Z
    M1290 291 L1294 296 L1293 301 L1289 293 Z
    M253 500 L254 507 L252 511 L251 506 Z
    M924 900 L911 904 L906 908 L924 902 Z
    M354 536 L355 544 L353 545 L352 540 Z
    M425 747 L428 750 L428 755 L424 751 Z
    M417 723 L420 728 L419 732 L416 727 Z
    M294 368 L295 370 L290 377 L289 374 Z
    M1075 816 L1076 818 L1069 823 L1068 822 Z
    M920 896 L906 901 L905 903 L915 900 Z
    M1285 360 L1288 359 L1290 363 L1287 364 Z
    M535 491 L536 500 L533 496 Z
    M1178 661 L1179 664 L1177 668 L1174 663 L1177 663 Z
    M1267 343 L1271 355 L1273 355 L1270 345 Z
    M1324 530 L1325 532 L1321 539 L1320 536 Z
    M1330 515 L1331 518 L1328 524 L1327 520 Z
    M1298 261 L1302 266 L1301 269 L1297 264 Z
    M1143 719 L1135 730 L1140 726 L1144 720 Z
    M533 526 L535 527 L535 533 L531 528 Z
    M1056 820 L1050 825 L1048 824 L1054 819 Z
    M1239 676 L1240 678 L1236 684 L1235 681 Z
    M1184 629 L1186 632 L1184 638 Z
    M1348 376 L1348 385 L1346 379 Z
    M590 231 L591 235 L587 239 L586 237 Z
    M1166 682 L1163 683 L1161 689 L1164 687 Z
    M515 529 L513 531 L513 540 L515 537 Z
    M410 706 L412 707 L412 714 L409 708 Z
    M422 391 L423 394 L418 398 L417 396 Z
    M1388 416 L1386 424 L1387 429 Z
    M271 579 L273 584 L271 588 Z
    M348 759 L349 758 L353 763 L351 764 Z
    M1273 511 L1273 518 L1271 516 Z
    M1235 466 L1237 469 L1236 474 L1234 470 Z
    M557 867 L560 866 L565 869 L562 870 Z
    M610 888 L618 891 L613 887 Z
    M1170 697 L1174 696 L1175 698 L1173 701 Z
    M1293 318 L1295 325 L1292 322 Z
    M400 673 L402 678 L401 681 L399 678 Z
    M1110 776 L1111 778 L1107 782 L1106 780 Z
    M1263 661 L1264 664 L1260 667 L1259 665 Z
    M415 418 L416 420 L412 424 L411 423 Z
    M365 629 L365 636 L368 639 Z
    M1317 282 L1320 286 L1319 289 L1316 284 Z
    M403 685 L405 688 L404 692 L402 689 Z
    M1342 599 L1340 599 L1333 609 Z
    M1102 785 L1103 786 L1098 790 L1097 789 Z
    M1180 561 L1182 565 L1181 568 L1179 565 Z
    M1272 517 L1273 521 L1271 523 L1270 519 Z
    M1330 499 L1331 502 L1329 506 L1328 502 Z
    M1237 473 L1239 476 L1238 480 L1236 476 Z
    M491 817 L493 816 L497 820 L495 821 Z
    M398 666 L400 669 L399 673 L397 669 Z
    M350 521 L351 524 L349 528 L348 524 Z
    M632 888 L640 889 L636 887 Z
    M266 647 L269 654 L270 652 L268 647 Z
    M1179 683 L1180 685 L1177 689 L1176 687 Z
    M1299 302 L1301 304 L1300 308 L1298 305 Z
    M1294 300 L1296 303 L1295 306 L1293 304 Z
    M400 889 L402 888 L406 890 L403 892 Z
    M396 881 L399 884 L398 887 L395 883 Z
    M417 735 L420 739 L419 741 L416 738 Z
    M400 728 L403 732 L402 734 L399 730 Z
    M457 650 L460 653 L459 656 L456 652 Z
    M1322 571 L1323 572 L1319 576 L1318 574 Z
    M1173 667 L1174 669 L1172 673 L1171 669 Z
    M1336 479 L1337 481 L1335 485 L1334 481 Z
    M1335 333 L1337 335 L1336 339 L1334 335 Z
    M1328 330 L1328 336 L1326 332 Z
    M565 863 L568 862 L571 864 L568 865 Z
    M1391 514 L1389 514 L1387 520 Z
    M949 902 L952 900 L954 901 L953 903 Z
    M455 376 L456 378 L453 381 L452 380 Z
    M1389 458 L1385 469 L1387 468 Z
    M1156 821 L1157 822 L1153 825 L1152 824 Z
    M1268 621 L1269 623 L1266 626 L1265 624 Z
    M374 713 L375 712 L378 716 L377 717 Z
    M408 444 L409 447 L407 449 L406 446 Z
    M493 310 L494 312 L491 315 L490 313 Z
  "/>
</svg>
